<svg id="ChevronUp" xmlns="http://www.w3.org/2000/svg" width="83.931" height="69.942" viewBox="0 0 83.931 69.942">
  <path id="Path_2" data-name="Path 2" d="M38.81,75.444,9.3,27.546A3.041,3.041,0,0,1,9.482,24.1,91.331,91.331,0,0,1,19.526,12.767a37.559,37.559,0,0,1,3.91-3.348A12.052,12.052,0,0,1,30.843,7a12.976,12.976,0,0,1,7.974,2.576c.4.39,2.154,1.872,3.588,3.273,8.925,8.172,23.67,29.5,28.139,40.723.72,1.633,2.224,5.992,2.308,8.254a13.555,13.555,0,0,1-1.518,6.307,13.049,13.049,0,0,1-6.3,5.528,64.854,64.854,0,0,1-7.491,1.79,123.462,123.462,0,0,1-15.871,1.49A3.236,3.236,0,0,1,38.81,75.444Z" transform="translate(11.078 -7)" fill="#fff"/>
  <path id="Path_3" data-name="Path 3" d="M39.994,44.611a3.1,3.1,0,0,1-2.875,4.667c-5.89-.252-11.08-.69-14.941-1.223-.084-.083-6.932-1.169-9.247-2.419A12.435,12.435,0,0,1,6,34.581V34.2c.077-2.966,2.707-9.272,2.868-9.272A96.6,96.6,0,0,1,15.121,13.14a3.21,3.21,0,0,1,5.442-.048Z" transform="translate(-6 20.629)" fill="#1ee0e0"/>
</svg>
