<svg xmlns="http://www.w3.org/2000/svg" width="428.814" height="105" viewBox="0 0 490 105">
  <g id="Group_45" data-name="Group 45" transform="translate(-783.656 351.657)">
    <g id="ChevronUp" transform="translate(777.656 -339.718)">
      <path id="Path_2" data-name="Path 2" d="M37.988,73.566,9.287,26.982a2.958,2.958,0,0,1,.177-3.356,88.825,88.825,0,0,1,9.769-11.018,36.529,36.529,0,0,1,3.8-3.256A11.721,11.721,0,0,1,30.24,7,12.62,12.62,0,0,1,38,9.505c.388.379,2.1,1.821,3.49,3.183,8.68,7.948,23.021,28.694,27.367,39.606A30.539,30.539,0,0,1,71.1,60.322a13.183,13.183,0,0,1-1.476,6.134A12.691,12.691,0,0,1,63.5,71.831a63.076,63.076,0,0,1-7.285,1.741,120.075,120.075,0,0,1-15.435,1.449A3.147,3.147,0,0,1,37.988,73.566Z" transform="translate(16.531 0)" fill="#fff"/>
      <path id="Path_3" data-name="Path 3" d="M39.061,43.706a3.011,3.011,0,0,1-2.8,4.539C30.537,48,25.49,47.574,21.735,47.055c-.082-.08-6.741-1.137-8.993-2.353A12.094,12.094,0,0,1,6,33.951v-.372c.075-2.884,2.633-9.018,2.789-9.018A93.948,93.948,0,0,1,14.871,13.1a3.122,3.122,0,0,1,5.293-.047Z" transform="translate(0 26.744)" fill="#1ee0e0"/>
    </g>
    <text id="Devcover" transform="translate(1046.47 -266.657)" fill="#f0f0f0" font-size="87" font-family="HelveticaNeue-CondensedBlack, Helvetica Neue" font-weight="800"><tspan x="-165.082" y="0">Devcover</tspan></text>
  </g>
</svg>
