<?xml version="1.0" standalone="no"?>
<!DOCTYPE svg PUBLIC "-//W3C//DTD SVG 20010904//EN"
 "http://www.w3.org/TR/2001/REC-SVG-20010904/DTD/svg10.dtd">
<svg version="1.0" xmlns="http://www.w3.org/2000/svg"
 width="672.000000pt" height="672.000000pt" viewBox="0 0 672.000000 672.000000"
 preserveAspectRatio="xMidYMid meet">
<metadata>
Created by potrace 1.11, written by Peter Selinger 2001-2013
</metadata>
<g transform="translate(0.000000,672.000000) scale(0.100000,-0.100000)"
fill="#000000" stroke="none">
<path d="M3190 6148 c-25 -5 -49 -10 -55 -12 -5 -2 -28 -6 -50 -11 -22 -4 -44
-10 -50 -14 -5 -3 -12 -6 -15 -7 -27 -5 -178 -80 -214 -107 -47 -34 -168 -128
-195 -152 -252 -223 -596 -583 -771 -807 -25 -32 -48 -58 -52 -58 -5 0 -8 -6
-8 -14 0 -8 -4 -16 -8 -18 -5 -1 -41 -46 -81 -98 -120 -159 -125 -225 -26
-388 28 -46 54 -92 60 -103 5 -10 13 -19 17 -19 5 0 8 -4 8 -10 0 -8 86 -151
191 -316 22 -33 39 -65 39 -71 0 -6 4 -13 8 -15 5 -1 44 -61 87 -133 102 -167
219 -356 291 -470 31 -49 59 -98 62 -107 2 -10 8 -18 13 -18 5 0 9 -7 9 -15 0
-8 4 -15 9 -15 5 0 11 -8 14 -17 6 -19 38 -74 48 -83 3 -3 23 -34 44 -70 21
-36 41 -67 45 -70 3 -3 11 -16 18 -30 7 -14 21 -38 32 -55 11 -16 26 -42 35
-57 19 -34 61 -99 75 -115 5 -7 10 -16 10 -21 0 -5 13 -28 30 -50 16 -23 30
-44 30 -47 0 -3 25 -44 55 -90 30 -47 55 -88 55 -91 0 -3 13 -25 30 -49 16
-24 30 -48 30 -53 0 -6 4 -12 8 -14 6 -2 157 -243 265 -423 7 -11 24 -39 40
-62 15 -23 27 -44 27 -47 0 -2 17 -31 38 -63 21 -32 47 -74 58 -93 10 -19 21
-37 24 -40 5 -4 38 -59 115 -186 11 -18 51 -83 90 -145 38 -61 74 -120 80
-130 34 -62 131 -215 137 -217 5 -2 8 -9 8 -16 0 -7 8 -21 18 -32 9 -11 26
-37 37 -59 37 -72 90 -129 146 -157 l54 -27 175 5 c205 6 274 10 480 29 25 3
70 7 100 9 30 3 75 8 100 11 66 8 129 15 180 20 25 2 56 7 70 9 24 6 80 14
145 21 17 2 44 6 60 9 17 3 44 8 60 11 17 3 37 8 45 10 8 2 31 7 50 10 36 6
163 33 190 40 8 2 51 13 95 25 206 53 282 86 410 179 69 50 182 165 233 239
34 49 92 157 98 182 0 3 6 17 12 33 7 15 14 38 16 50 3 12 10 38 16 57 33 110
34 303 1 445 -42 181 -135 442 -231 651 -54 117 -193 388 -240 467 -10 18 -30
53 -44 78 -13 25 -71 122 -127 215 -56 93 -107 178 -113 189 -6 11 -32 52 -57
90 -25 39 -52 81 -59 94 -7 14 -17 30 -22 35 -5 6 -47 69 -94 140 -90 137
-194 289 -254 371 -20 28 -65 91 -100 140 -36 50 -68 95 -72 100 -5 6 -42 55
-83 110 -41 55 -78 105 -82 110 -5 6 -37 48 -73 93 -61 79 -302 374 -324 398
-6 6 -36 40 -66 75 -59 68 -176 193 -251 268 -115 115 -227 218 -393 365 -86
76 -255 155 -411 192 -16 4 -37 9 -45 11 -32 9 -317 10 -360 1z"/>
<path d="M898 3574 c-3 -3 -18 -7 -33 -10 -56 -10 -120 -80 -206 -224 -41 -69
-72 -127 -71 -129 2 -2 0 -7 -5 -10 -37 -24 -423 -808 -448 -911 -2 -5 -6 -17
-28 -75 -7 -16 -12 -32 -12 -35 0 -3 -6 -18 -12 -35 -7 -16 -27 -84 -44 -150
-91 -341 -4 -680 240 -938 24 -26 70 -66 100 -90 31 -23 58 -45 61 -48 16 -19
178 -95 250 -118 61 -19 136 -39 152 -41 4 -1 22 -6 40 -11 18 -6 42 -12 53
-14 11 -2 31 -6 45 -9 37 -8 172 -36 195 -40 11 -2 31 -7 45 -10 14 -3 41 -8
60 -11 19 -2 46 -6 60 -9 35 -6 116 -17 172 -22 25 -2 62 -6 81 -8 20 -3 73
-8 119 -11 45 -4 94 -8 108 -11 14 -2 70 -6 125 -9 55 -4 118 -8 141 -10 84
-8 322 -19 404 -19 68 0 93 4 126 22 84 43 147 150 138 233 -6 64 -19 95 -89
207 -38 62 -75 120 -80 130 -6 9 -30 49 -53 87 -24 39 -48 79 -55 90 -7 11
-14 22 -17 25 -3 3 -12 16 -19 30 -16 27 -212 347 -301 490 -82 132 -125 203
-141 230 -8 14 -17 27 -20 30 -3 3 -16 25 -30 50 -13 25 -26 47 -29 50 -11 11
-70 112 -70 120 0 5 -3 10 -7 12 -5 2 -26 32 -48 68 -21 36 -45 71 -52 78 -7
7 -13 20 -13 28 0 8 -4 14 -8 14 -4 0 -13 12 -19 28 -13 28 -34 63 -44 72 -3
3 -9 12 -12 20 -4 8 -32 53 -62 100 -31 47 -61 97 -67 113 -7 15 -16 27 -20
27 -4 0 -8 7 -8 15 0 8 -4 15 -10 15 -5 0 -10 5 -10 11 0 6 -12 29 -27 52 -41
63 -52 80 -63 102 -6 11 -24 40 -40 65 -16 25 -43 70 -61 100 -18 30 -35 57
-38 60 -3 3 -12 17 -20 33 -8 15 -18 27 -23 27 -5 0 -7 4 -4 8 10 17 -82 119
-128 141 -42 21 -156 37 -168 25z"/>
</g>
</svg>
